{"accessors":[{"bufferView":0,"componentType":5126,"count":504,"max":[0.9057251214981079,0.8830167055130005,0.8608776330947876],"min":[-0.9057251214981079,-0.8830167055130005,-0.8608776330947876],"type":"VEC3"},{"bufferView":1,"componentType":5126,"count":504,"type":"VEC3"},{"bufferView":2,"componentType":5126,"count":504,"type":"VEC2"},{"bufferView":3,"componentType":5125,"count":504,"type":"SCALAR"}],"asset":{"generator":"Luxion KeyShot","version":"2.0"},"bufferViews":[{"buffer":0,"byteLength":6048,"byteOffset":0,"byteStride":12},{"buffer":0,"byteLength":6048,"byteOffset":6048,"byteStride":12},{"buffer":0,"byteLength":4032,"byteOffset":12096,"byteStride":8},{"buffer":0,"byteLength":2016,"byteOffset":16128}],"buffers":[{"byteLength":18144,"uri":"./ball_resources/ball.bin"}],"cameras":[{"name":"active","perspective":{"aspectRatio":1.0,"yfov":0.6911154697478635,"zfar":9.23328685760498,"znear":7.356734752655029},"type":"perspective"}],"images":[{"uri":"./ball_resources/mesh_3_normal.png"}],"materials":[{"doubleSided":true,"normalTexture":{"index":0,"scale":-1},"pbrMetallicRoughness":{"baseColorFactor":[0.16706432402133942,0.6089351773262024,0.20651453733444214,1.0],"metallicFactor":1.0,"roughnessFactor":0.17230767011642456}}],"meshes":[{"name":"mesh-mesh","primitives":[{"attributes":{"NORMAL":1,"POSITION":0,"TEXCOORD_0":2},"indices":3,"material":0,"mode":4}]}],"nodes":[{"camera":0,"matrix":[0.015087936808664448,-1.8229731203744937e-07,-0.9998862070519495,0.0,0.9979622686943123,-0.0620053093663656,0.015058916549401027,0.0,-0.06199825182557106,-0.9980758428573608,-0.000935350195504725,0.0,-0.5142761468887329,-7.39603328704834,-0.007758740335702896,1.0],"name":"active"},{"mesh":0,"name":"mesh"},{"children":[1],"matrix":[1.0,0.0,0.0,0.0,0.0,1.0,0.0,0.0,0.0,0.0,1.0,0.0,0.0,0.8830167055130005,0.0,1.0],"name":"ball"},{"children":[2],"name":"Default"},{"children":[3],"matrix":[0.001,0.0,0.0,0.0,0.0,0.001,0.0,0.0,0.0,0.0,0.001,0.0,0.0,0.0,0.0,1.0],"name":"lux_root"}],"samplers":[{"magFilter":9729,"minFilter":9987,"wrapS":10497,"wrapT":10497}],"scenes":[{"nodes":[0,4]}],"textures":[{"sampler":0,"source":0}]}   